<svg width="12" height="11" viewBox="0 0 12 11" fill="none" xmlns="http://www.w3.org/2000/svg">
<path d="M1.03979 6.17183C1.21315 7.35141 1.80956 8.42975 2.71991 9.20957C3.63027 9.9894 4.7937 10.4186 5.99737 10.4186C7.20104 10.4186 8.36447 9.9894 9.27482 9.20957C10.1852 8.42975 10.7816 7.35141 10.9549 6.17183M5.99808 0.503418C5.42881 0.503418 4.88285 0.72737 4.48032 1.12601C4.07778 1.52464 3.85164 2.06531 3.85164 2.62907V5.46327C3.85164 6.02703 4.07778 6.5677 4.48032 6.96634C4.88285 7.36498 5.42881 7.58893 5.99808 7.58893C6.56736 7.58893 7.11331 7.36498 7.51585 6.96634C7.91839 6.5677 8.14453 6.02703 8.14453 5.46327V2.62907C8.14453 2.06531 7.91839 1.52464 7.51585 1.12601C7.11331 0.72737 6.56736 0.503418 5.99808 0.503418Z" stroke="white" stroke-width="0.931716" stroke-linecap="round" stroke-linejoin="round"/>
</svg>
