<svg width="12" height="12" viewBox="0 0 12 12" fill="none" xmlns="http://www.w3.org/2000/svg">
<path d="M9.71555 7.10356C10.37 7.74536 10.9549 9.36127 10.9549 10.3569C10.9549 10.6671 10.7825 10.9186 10.5698 10.9186H10.3352M7.85646 4.47288C8.27984 4.15144 8.56468 3.55063 8.56468 2.86251C8.56468 2.17438 8.27984 1.57358 7.85646 1.25213M1.42492 10.9186H8.20907C8.42177 10.9186 8.59419 10.6671 8.59419 10.3569C8.59419 8.40718 7.35311 6.8266 4.81699 6.8266C2.28087 6.8266 1.03979 8.40718 1.03979 10.3569C1.03979 10.6671 1.21222 10.9186 1.42492 10.9186ZM6.23344 2.86251C6.23344 3.88926 5.59928 4.7216 4.81699 4.7216C4.03471 4.7216 3.40054 3.88926 3.40054 2.86251C3.40054 1.83576 4.03471 1.00342 4.81699 1.00342C5.59928 1.00342 6.23344 1.83576 6.23344 2.86251Z" stroke="white" stroke-width="1.19237" stroke-linecap="round"/>
</svg>
