<svg width="12" height="12" viewBox="0 0 12 12" fill="none" xmlns="http://www.w3.org/2000/svg">
<path d="M1.03979 0.487004C0.754587 0.487004 0.523381 0.71821 0.523381 1.00342C0.523381 1.28863 0.754587 1.51983 1.03979 1.51983V0.487004ZM2.22369 1.00342L2.72249 0.869683C2.66197 0.643954 2.4574 0.487004 2.22369 0.487004V1.00342ZM4.14753 8.17883L3.64873 8.31257C3.71557 8.56185 3.95617 8.72351 4.21222 8.69118L4.14753 8.17883ZM10.067 7.43139L10.1317 7.94374C10.3511 7.91603 10.5286 7.75168 10.5729 7.53502L10.067 7.43139ZM10.9549 3.09625L11.4609 3.19987C11.492 3.04789 11.4531 2.88997 11.3551 2.76977C11.257 2.64957 11.1101 2.57983 10.9549 2.57983V3.09625ZM2.78481 3.09625L2.28601 3.22998L2.28601 3.22998L2.78481 3.09625ZM1.03979 1.51983H2.22369V0.487004H1.03979V1.51983ZM4.21222 8.69118L10.1317 7.94374L10.0023 6.91905L4.08283 7.66649L4.21222 8.69118ZM10.5729 7.53502L11.4609 3.19987L10.449 2.99263L9.56111 7.32777L10.5729 7.53502ZM1.7249 1.13715L2.28601 3.22998L3.28361 2.96251L2.72249 0.869683L1.7249 1.13715ZM2.28601 3.22998L3.64873 8.31257L4.64632 8.0451L3.28361 2.96251L2.28601 3.22998ZM10.9549 2.57983H2.78481V3.61266H10.9549V2.57983ZM5.48096 10.1361C5.48096 10.288 5.36045 10.4022 5.22275 10.4022V11.435C5.94067 11.435 6.51378 10.8485 6.51378 10.1361H5.48096ZM5.22275 10.4022C5.08504 10.4022 4.96454 10.288 4.96454 10.1361H3.93171C3.93171 10.8485 4.50483 11.435 5.22275 11.435V10.4022ZM4.96454 10.1361C4.96454 9.98422 5.08504 9.87003 5.22275 9.87003V8.8372C4.50483 8.8372 3.93171 9.42366 3.93171 10.1361H4.96454ZM5.22275 9.87003C5.36045 9.87003 5.48096 9.98422 5.48096 10.1361H6.51378C6.51378 9.42366 5.94067 8.8372 5.22275 8.8372V9.87003ZM9.61227 10.1361C9.61227 10.288 9.49176 10.4022 9.35406 10.4022V11.435C10.072 11.435 10.6451 10.8485 10.6451 10.1361H9.61227ZM9.35406 10.4022C9.21636 10.4022 9.09585 10.288 9.09585 10.1361H8.06303C8.06303 10.8485 8.63614 11.435 9.35406 11.435V10.4022ZM9.09585 10.1361C9.09585 9.98422 9.21636 9.87003 9.35406 9.87003V8.8372C8.63614 8.8372 8.06303 9.42366 8.06303 10.1361H9.09585ZM9.35406 9.87003C9.49176 9.87003 9.61227 9.98422 9.61227 10.1361H10.6451C10.6451 9.42366 10.072 8.8372 9.35406 8.8372V9.87003Z" fill="white"/>
</svg>
