<svg width="183" height="21" viewBox="0 0 183 21" fill="none" xmlns="http://www.w3.org/2000/svg">
<path fill-rule="evenodd" clip-rule="evenodd" d="M39.62 1.13428L42.2806 7.42028C21.9045 20.8317 3.08591 11.5979 0.706543 10.3095C2.82634 11.3637 17.7731 18.1377 36.5052 0.548629C37.4786 -0.368892 39.1658 -0.0565444 39.6417 1.13428H39.62Z" fill="#FDC80A"/>
<path fill-rule="evenodd" clip-rule="evenodd" d="M42.2805 7.42009L45.0708 14.3698C24.154 23.467 5.50844 13.3157 1.3121 10.7388C1.24721 10.6997 1.18232 10.6412 1.11742 10.6217C0.987641 10.5436 0.879488 10.4655 0.792965 10.4069C0.728073 10.3679 0.684809 10.3288 0.641548 10.3093C0.641548 10.3093 0.619918 10.3093 0.598288 10.2703C0.555026 10.2507 0.533397 10.2312 0.511766 10.2117C0.511766 10.2117 0.468506 10.1922 0.468506 10.1727C0.468506 10.1727 0.490136 10.1727 0.511766 10.1922C0.511766 10.1922 0.533396 10.1922 0.555027 10.2117C0.598288 10.2312 0.641551 10.2507 0.684812 10.2898C0.728073 10.3093 0.792962 10.3484 0.857854 10.3874C1.11742 10.5241 1.50677 10.7193 2.00428 10.9535C2.15569 11.0121 2.30711 11.0902 2.45852 11.1487C2.54504 11.1878 2.6532 11.2268 2.76135 11.2854L3.08581 11.422C3.21559 11.4806 3.34538 11.5197 3.49679 11.5782C3.69147 11.6563 3.88614 11.7344 4.08082 11.8125C5.87616 12.4957 8.27716 13.2766 11.154 13.8232C11.4569 13.8818 11.7597 13.9404 12.0841 13.9989C13.6848 14.2722 15.4369 14.4674 17.2755 14.5455C17.5134 14.5455 17.7297 14.5455 17.9677 14.565C18.2056 14.565 18.4435 14.565 18.6815 14.565C19.8712 14.565 21.1041 14.5455 22.3587 14.4284C22.5966 14.4284 22.8129 14.3894 23.0509 14.3698C23.3753 14.3503 23.6998 14.3113 24.0242 14.2722C24.2406 14.2527 24.4569 14.2137 24.6732 14.1941C25.1058 14.1356 25.5384 14.077 25.971 13.9989C26.144 13.9794 26.3387 13.9404 26.5118 13.9013C26.6848 13.8623 26.8579 13.8427 27.0309 13.8037C28.5883 13.4914 30.189 13.0814 31.8113 12.5348C32.0925 12.4372 32.3737 12.3396 32.6765 12.242C32.8279 12.1834 33.001 12.1248 33.1524 12.0663C33.3254 12.0077 33.4985 11.9491 33.6715 11.871C36.4835 10.7974 39.382 9.33322 42.3021 7.40057L42.2805 7.42009Z" fill="#6D9B24"/>
<path fill-rule="evenodd" clip-rule="evenodd" d="M56.0592 7.77155L59.3037 15.8926C55.3453 18.0009 51.3653 19.426 47.4502 20.3045L45.0708 14.3504C48.6831 12.7886 52.382 10.6217 56.0592 7.77155Z" fill="#2B83AF"/>
<path fill-rule="evenodd" clip-rule="evenodd" d="M53.5066 1.11462L56.059 7.77153C52.3601 10.6412 48.6829 12.7886 45.0706 14.3503L42.2803 7.40062C44.9625 5.64366 47.6663 3.1644 50.3701 0.548489C51.3219 -0.388554 53.0307 -0.0762059 53.5066 1.11462Z" fill="#8EC94B"/>
<path fill-rule="evenodd" clip-rule="evenodd" d="M67.0258 1.11474L69.9243 8.33778C66.4634 11.5003 62.8944 13.9796 59.3037 15.8927L56.0591 7.77165C58.6548 5.76091 61.2504 3.39878 63.8245 0.626698C64.7546 -0.36891 66.5283 -0.0956065 67.0258 1.13426V1.11474Z" fill="#35A8ED"/>
<path d="M83.723 3.63196C83.4634 3.35866 83.1822 3.16344 82.8794 3.04631C82.5766 2.92918 82.1872 2.89014 81.733 2.89014C81.2787 2.89014 80.8677 2.9487 80.5649 3.04631C80.2621 3.16344 79.9809 3.35866 79.7213 3.63196C79.4618 3.90527 79.2238 4.31522 79.0075 4.84231L73.9243 17.3948H77.3203L78.51 14.2127H84.9343L86.124 17.3948H89.4984L84.4368 4.84231C84.2205 4.31522 83.9826 3.90527 83.723 3.63196ZM79.4401 11.7725L81.733 5.62318L84.0258 11.7725H79.4401Z" fill="white"/>
<path d="M100.487 3.74913C99.0806 3.30013 97.5881 3.08539 95.9874 3.08539H91.0989V17.4339H95.9874C97.6097 17.4339 99.1238 17.2191 100.508 16.7896C101.893 16.3602 103.061 15.6183 103.969 14.5642C104.878 13.4905 105.332 12.0654 105.332 10.2499C105.332 8.43434 104.878 7.08734 103.969 6.03317C103.061 4.95948 101.914 4.21765 100.508 3.76865L100.487 3.74913ZM101.179 13.061C100.616 13.7247 99.9242 14.1933 99.1022 14.447C98.2802 14.7008 97.415 14.8179 96.5065 14.8179H94.3002V5.68178H96.5065C97.3934 5.68178 98.2586 5.81843 99.0806 6.07221C99.9025 6.34552 100.595 6.81404 101.157 7.4973C101.72 8.18056 102.001 9.1176 102.001 10.2694C102.001 11.4212 101.72 12.3582 101.157 13.0415L101.179 13.061Z" fill="white"/>
<path d="M107.754 5.56465V14.9351V17.4143H110.977V14.9351V5.56465V3.08539H107.754V5.56465Z" fill="white"/>
<path d="M113.097 5.68178H117.553V17.4143H120.776V5.68178H125.21V3.08539H113.097V5.68178Z" fill="white"/>
<path d="M137.021 9.58612C137.691 9.41043 138.211 9.1176 138.6 8.72717C139.162 8.18056 139.422 7.45826 139.422 6.56026C139.422 5.66226 139.011 4.68617 138.211 4.04195C137.41 3.39774 136.134 3.08539 134.404 3.08539H127.655V17.4339H135.463C136.48 17.4339 137.345 17.2777 138.059 16.9458C138.773 16.6139 139.314 16.1454 139.703 15.5598C140.071 14.9546 140.265 14.2518 140.265 13.4319C140.265 12.2801 139.898 11.3431 139.162 10.6403C138.622 10.1327 137.908 9.78134 137.021 9.60565V9.58612ZM129.493 4.53H134.468C135.507 4.53 136.285 4.72521 136.805 5.13517C137.324 5.54513 137.583 6.09174 137.583 6.775C137.583 7.45826 137.324 8.06343 136.783 8.47339C136.264 8.88334 135.442 9.07856 134.339 9.07856H129.493V4.53ZM137.54 15.2669C136.956 15.7355 136.112 15.9697 135.031 15.9697H129.493V10.5232H134.879C136.026 10.5232 136.913 10.7574 137.518 11.2259C138.124 11.6945 138.427 12.3777 138.427 13.2757C138.427 14.1737 138.146 14.7984 137.562 15.2669H137.54Z" fill="white"/>
<path d="M145.63 7.43864C145.067 7.71195 144.635 8.16095 144.332 8.7466L143.921 7.1263H142.385L142.623 8.59042L142.731 9.35177V17.4533H144.462V12.1629C144.462 11.2259 144.548 10.5231 144.743 10.035C144.937 9.54699 145.262 9.1956 145.716 8.98086C146.17 8.76612 146.863 8.66851 147.749 8.66851H148.42V7.02869H147.814C146.927 7.02869 146.192 7.16534 145.63 7.45817V7.43864Z" fill="white"/>
<path d="M158.63 10.7573C158.63 9.41026 158.262 8.45369 157.526 7.86804C156.791 7.28239 155.688 6.98956 154.195 6.98956C152.703 6.98956 151.578 7.26287 150.864 7.78996C150.15 8.33656 149.761 9.09791 149.739 10.113H151.427C151.427 9.4493 151.664 8.98078 152.162 8.68795C152.659 8.39513 153.33 8.23896 154.174 8.23896C155.017 8.23896 155.688 8.41465 156.164 8.74652C156.64 9.07839 156.877 9.72261 156.877 10.6596V11.4991H153.849C152.27 11.4991 151.102 11.7724 150.302 12.2995C149.523 12.8461 149.112 13.6074 149.112 14.5835C149.112 15.5596 149.263 15.7158 149.588 16.1453C149.912 16.5943 150.367 16.9261 150.951 17.1604C151.535 17.3946 152.248 17.5118 153.07 17.5118C153.892 17.5118 155.104 17.297 155.796 16.8871C156.272 16.5943 156.683 16.2038 157.029 15.7158L157.375 17.3751H158.911L158.586 15.1496V10.7182L158.63 10.7573ZM155.969 15.4425C155.363 16.0476 154.498 16.36 153.373 16.36C152.249 16.36 152.054 16.2233 151.621 15.9305C151.167 15.6377 150.951 15.1496 150.951 14.4664C150.951 13.7831 151.059 13.6855 151.275 13.4317C151.491 13.178 151.816 13.0023 152.248 12.9046C152.681 12.807 153.222 12.7485 153.914 12.729H156.921V13.0803C156.921 14.0369 156.618 14.8178 155.991 15.4425H155.969Z" fill="white"/>
<path d="M168.406 11.9091C167.822 11.6943 167.065 11.4796 166.135 11.2453C166.07 11.2453 166.005 11.2258 165.962 11.2063H165.876C165.248 11.0306 164.794 10.894 164.47 10.7768C164.145 10.6597 163.907 10.5035 163.713 10.3083C163.54 10.1131 163.431 9.85931 163.431 9.54696C163.431 9.07844 163.626 8.72705 164.037 8.55135C164.448 8.35613 164.989 8.25852 165.659 8.25852C166.33 8.25852 167.152 8.39518 167.606 8.66848C168.06 8.94179 168.277 9.35174 168.277 9.91787H169.985C169.985 9.01987 169.639 8.29757 168.947 7.77048C168.255 7.2434 167.173 6.97009 165.724 6.97009C164.275 6.97009 163.431 7.20435 162.696 7.65335C161.96 8.10235 161.614 8.78561 161.614 9.66409C161.614 10.5426 161.766 10.6792 162.047 11.0306C162.328 11.382 162.739 11.6748 163.28 11.9091C163.821 12.1433 164.535 12.3581 165.443 12.5923L165.854 12.69C166.525 12.8461 167.044 12.9828 167.39 13.0999C167.757 13.217 168.06 13.4123 168.277 13.6465C168.515 13.8808 168.623 14.2127 168.623 14.6031C168.623 15.1692 168.385 15.5987 167.909 15.872C167.433 16.1453 166.784 16.2624 165.919 16.2624C165.054 16.2624 164.188 16.0867 163.648 15.7353C163.085 15.384 162.804 14.8178 162.804 14.037H161.052C161.052 15.1497 161.463 16.0087 162.263 16.6138C163.064 17.219 164.253 17.5313 165.811 17.5313C167.368 17.5313 167.693 17.3947 168.385 17.1409C169.077 16.8871 169.596 16.5162 169.921 16.0672C170.267 15.6182 170.44 15.0716 170.44 14.4664C170.44 13.8613 170.245 13.2561 169.856 12.8461C169.466 12.4362 168.99 12.1043 168.385 11.8896L168.406 11.9091Z" fill="white"/>
<path d="M173.858 2.77307C173.447 2.77307 173.122 2.87068 172.906 3.0659C172.69 3.26111 172.56 3.53442 172.56 3.84677C172.56 4.15911 172.668 4.5105 172.884 4.70572C173.101 4.92046 173.425 5.01807 173.858 5.01807C174.29 5.01807 174.615 4.92046 174.831 4.70572C175.069 4.5105 175.177 4.21768 175.177 3.84677C175.177 3.47585 175.069 3.26111 174.831 3.0659C174.593 2.87068 174.269 2.77307 173.858 2.77307Z" fill="white"/>
<path d="M172.971 8.51231V15.9306V17.4142H174.723V15.9306V7.10675H172.971V8.51231Z" fill="white"/>
<path d="M181.666 16.1259C181.126 16.1259 180.715 16.0478 180.433 15.8917C180.13 15.7355 179.936 15.4817 179.806 15.1498C179.676 14.818 179.611 14.3495 179.611 13.7833V2.77307H177.838V13.6272C177.838 14.5837 177.946 15.3451 178.14 15.8917C178.335 16.4383 178.725 16.8482 179.244 17.1215C179.784 17.3948 180.541 17.512 181.515 17.512H182.531V16.1259H181.645H181.666Z" fill="white"/>
</svg>
